<svg id="Layer_1" data-name="Layer 1" xmlns="http://www.w3.org/2000/svg" xmlns:xlink="http://www.w3.org/1999/xlink" viewBox="0 0 100 100"><defs><style>.cls-1{fill:#f1f2f2;}.cls-2{fill:url(#linear-gradient);}.cls-3{fill:url(#linear-gradient-2);}.cls-4{fill:url(#linear-gradient-3);}.cls-5{fill:url(#linear-gradient-4);}</style><linearGradient id="linear-gradient" x1="39.7" y1="36.45" x2="74.6" y2="36.45" gradientUnits="userSpaceOnUse"><stop offset="0" stop-color="#971319"/><stop offset="0.98" stop-color="#ed242e"/></linearGradient><linearGradient id="linear-gradient-2" x1="35.66" y1="27.65" x2="63.23" y2="27.65" xlink:href="#linear-gradient"/><linearGradient id="linear-gradient-3" x1="25.4" y1="28.93" x2="46.12" y2="28.93" xlink:href="#linear-gradient"/><linearGradient id="linear-gradient-4" x1="34.91" y1="72.78" x2="59.11" y2="72.78" xlink:href="#linear-gradient"/></defs><rect class="cls-1" width="100" height="100"/><path class="cls-2" d="M64.51,23.46c.41-.11.83-.19,1.25-.26,1.44-.22,2.88-.37,4.33-.48.4,0,4.49-.1,4.51-.19a41.83,41.83,0,0,1-5.11,14.85,28.11,28.11,0,0,1-6,7,25.41,25.41,0,0,1-6,3.7c-3.38,1.48-6.81,1.8-10.43,2.1a72.08,72.08,0,0,1-7.35.2c1.95-3.63,4-7.23,6.12-10.74a40.56,40.56,0,0,1,6.84-8.34,42,42,0,0,1,8.44-6.39A16.16,16.16,0,0,1,64.51,23.46Z"/><path class="cls-3" d="M38.59,16.49A27.38,27.38,0,0,1,45,10.79,38.44,38.44,0,0,1,51,7.31c.39-.18,5-2.15,5-2.31,0,0,7.76,12.82,7.21,20.37-.47,6.44-4.32,12.32-9.36,16.28-4.41,3.46-9.48,5.71-14.2,8.66.75-.47-1-4.56-1.16-5.22-1.67-6.08-3.38-12.66-2.67-19,.33-2.83.4-5.66,1.83-8.21A13.68,13.68,0,0,1,38.59,16.49Z"/><path class="cls-4" d="M39.73,50.37s1.61-3.25,1.73-3.5.37-.78.49-1,.39-.76.59-1.15c.4-.78.8-1.57,1.17-2.37a24.79,24.79,0,0,0,2-5.58,21.15,21.15,0,0,0,.36-5.5,20,20,0,0,0-2.68-8.6c-2.93-5-7.34-9.29-11.35-13.46-.33-.35-1.67-1.68-1.67-1.68-3.34,9-7,18.47-3.65,28.06A25.77,25.77,0,0,0,32.55,45,55.65,55.65,0,0,0,39.73,50.37Z"/><path class="cls-5" d="M39.71,50.57a33.35,33.35,0,0,0-4.63,14,25.77,25.77,0,0,0,.07,6.37C36,76.94,39,81,41.26,84c5.63,7.48,12.55,11.6,13.22,10.94.22-.22-.3-.9.13-1.68.08-.13.39-.64,1.75-1.07,1.6-.51,2.72-.3,2.75-.47s-2.48-.7-4.7-1.54a21.42,21.42,0,0,1-6.11-3.83,30.17,30.17,0,0,1-8.12-8.79,23.31,23.31,0,0,1-3.08-8.26c-.53-3.23-.18-5.71.33-9.12A48.42,48.42,0,0,1,39.71,50.57Z"/></svg>